<?xml version="1.0" standalone="no"?>
<!DOCTYPE svg PUBLIC "-//W3C//DTD SVG 20010904//EN"
 "http://www.w3.org/TR/2001/REC-SVG-20010904/DTD/svg10.dtd">
<svg version="1.0" xmlns="http://www.w3.org/2000/svg"
 width="401.000000pt" height="401.000000pt" viewBox="0 0 401.000000 401.000000"
 preserveAspectRatio="xMidYMid meet">
<metadata>
Created by potrace 1.11, written by Peter Selinger 2001-2013
</metadata>
<g transform="translate(0.000000,401.000000) scale(0.100000,-0.100000)"
fill="#000000" stroke="none">
<path d="M1780 4000 c-89 -12 -142 -21 -190 -32 -25 -5 -56 -12 -70 -14 -107
-20 -438 -156 -540 -223 -14 -9 -33 -20 -42 -26 -41 -24 -137 -93 -188 -134
-412 -340 -661 -782 -735 -1306 -13 -89 -13 -472 -1 -525 3 -13 8 -42 12 -65
12 -84 54 -244 92 -350 198 -553 633 -993 1187 -1200 55 -21 150 -50 210 -65
105 -27 130 -31 255 -48 74 -9 399 -9 480 1 292 36 623 158 863 319 49 33 96
66 105 73 10 8 37 30 62 50 200 162 396 409 519 652 59 119 143 340 140 373 0
3 4 18 10 33 6 15 13 42 16 60 3 18 8 43 10 57 10 49 13 68 21 121 11 70 11
428 1 499 -36 253 -99 457 -204 665 -41 81 -129 227 -160 265 -7 8 -35 44 -63
80 -215 272 -528 499 -865 625 -96 36 -252 80 -325 91 -19 3 -70 11 -112 18
-85 14 -400 17 -488 6z"/>
</g>
</svg>
